<svg viewBox="0 0 164.53 322.52" xmlns="http://www.w3.org/2000/svg"><rect fill="#78d6cf" height="164.53" rx="17.92" transform="matrix(0 -1 1 0 -49.97 214.5)" width="264.47" x="-49.97" y="49.97"/><g fill="#fff"><circle cx="20.05" cy="20.05" r="13.19"/><circle cx="144.48" cy="20.05" r="13.19"/><circle cx="20.05" cy="244.22" r="13.19"/><circle cx="144.48" cy="244.22" r="13.19"/></g><path d="m44.49 225.12h75.54v39.14h-75.54z" fill="#58595b"/><path d="m75.81 246.55h12.91v75.97h-12.91z" fill="#c1c4c6"/><path d="m44.49 246.55h12.91v75.97h-12.91z" fill="#c1c4c6"/><path d="m107.12 246.55h12.91v75.97h-12.91z" fill="#c1c4c6"/><path d="m33.24 0h98.05v57.41h-98.05z" fill="#37b2d3"/><path d="m33.24 57.41h98.05v144.13h-98.05z" fill="#37b2d3"/><circle cx="53.14" cy="30.69" fill="#fff" r="10.65"/><path d="m42.5 30.69a10.52 10.52 0 0 0 .67 3.7h19.95a10.52 10.52 0 0 0 0-7.39h-19.95a10.5 10.5 0 0 0 -.67 3.69z" fill="#fff"/><circle cx="82.26" cy="30.69" fill="#fff" r="10.65"/><path d="m71.62 30.69a10.52 10.52 0 0 0 .67 3.7h19.95a10.52 10.52 0 0 0 0-7.39h-19.95a10.5 10.5 0 0 0 -.67 3.69z" fill="#fff"/><path d="m33.24 57.41h98.05v23.59h-98.05z" fill="#399ed1"/><circle cx="111.38" cy="30.69" fill="#fff" r="10.65"/><path d="m100.73 30.69a10.52 10.52 0 0 0 .68 3.7h20a10.52 10.52 0 0 0 0-7.39h-20a10.51 10.51 0 0 0 -.68 3.69z" fill="#fff"/></svg>